<svg xmlns="http://www.w3.org/2000/svg" version="1.0" width="400.000000pt" height="400.000000pt" viewBox="0 0 400.000000 400.000000" preserveAspectRatio="xMidYMid meet">

<g transform="translate(0.000000,400.000000) scale(0.100000,-0.100000)" fill="#1a202c" stroke="none">
<path d="M3100 3578 c-56 -38 -74 -72 -74 -132 1 -71 13 -128 25 -121 14 9 11 -48 -3 -68 -18 -23 -149 -82 -273 -122 -88 -29 -109 -33 -135 -24 -16 6 -30 17 -30 24 0 7 14 72 31 145 17 72 30 133 28 135 -14 13 -441 85 -508 85 -14 0 -22 -15 -35 -57 -18 -66 -53 -289 -45 -297 2 -3 64 -12 137 -20 254 -30 342 -47 342 -66 0 -19 40 -60 58 -60 7 0 23 6 35 14 12 8 67 21 122 30 55 8 127 24 159 36 33 11 60 20 61 20 2 0 5 -12 8 -27 3 -16 8 -38 12 -50 6 -19 2 -23 -26 -31 -21 -5 -45 -5 -62 1 -23 8 -32 6 -53 -14 -30 -28 -30 -42 -2 -74 25 -28 39 -31 71 -11 26 15 107 10 107 -8 0 -6 -5 -28 -11 -49 -6 -24 -7 -43 -1 -50 6 -7 6 -36 1 -72 -4 -33 -15 -148 -24 -255 -9 -107 -18 -195 -18 -195 -1 -1 -53 -11 -115 -23 -141 -28 -233 -64 -283 -112 l-39 -37 0 -84 c0 -47 6 -95 13 -109 32 -63 157 -121 337 -155 119 -23 391 -31 531 -15 214 23 400 88 439 153 24 38 33 182 15 217 -28 55 -141 109 -292 139 -56 12 -104 21 -107 21 -3 0 -6 50 -6 110 0 141 -15 285 -40 378 -11 40 -20 81 -20 92 0 12 -17 51 -37 89 l-38 69 23 76 c38 128 24 211 -38 231 -16 5 -20 15 -20 54 0 65 -27 161 -53 189 -51 55 -113 66 -167 30z m-767 -113 c110 -17 288 -52 295 -59 4 -5 -57 -33 -167 -77 l-74 -30 -36 34 c-20 19 -66 59 -104 91 -78 65 -78 65 86 41z m-94 -58 c41 -34 76 -67 78 -74 3 -6 -8 -18 -24 -26 -15 -8 -63 -40 -107 -71 -43 -31 -81 -55 -83 -52 -11 11 42 286 55 286 4 0 40 -28 81 -63z m904 46 c33 4 37 2 42 -25 4 -16 4 -45 1 -64 -5 -25 -3 -34 7 -34 9 0 18 21 26 55 8 35 18 55 27 55 19 0 18 -49 -1 -56 -8 -4 -15 -15 -15 -27 0 -28 -28 -57 -57 -57 -35 0 -90 25 -101 47 -6 10 -13 36 -16 58 -3 22 -3 32 0 23 8 -28 21 -21 28 15 4 21 9 28 15 19 5 -8 21 -11 44 -9z m-525 -185 c-15 -68 -30 -127 -31 -132 -3 -8 -92 163 -92 177 0 5 34 24 75 42 41 19 76 34 76 34 1 1 -12 -54 -28 -121z m-190 26 l42 15 26 -45 c15 -25 37 -71 50 -102 28 -69 28 -70 -99 -48 -51 8 -145 21 -209 28 -65 6 -118 14 -118 18 0 8 84 71 160 119 l65 40 21 -20 c19 -18 23 -18 62 -5z m796 -31 c-4 -19 -24 -45 -55 -72 l-48 -42 -7 26 c-4 15 -2 31 5 38 6 6 11 24 11 39 0 18 5 28 15 28 9 0 15 -9 15 -21 0 -27 33 -22 39 6 3 18 21 38 28 31 2 -2 0 -16 -3 -33z m135 1 c27 -34 28 -113 2 -171 -27 -58 -93 -118 -159 -144 -74 -29 -212 -38 -231 -15 -16 19 -8 32 24 40 14 4 63 20 110 37 l86 31 34 69 c36 70 41 89 27 89 -5 0 -23 -31 -42 -70 -32 -67 -36 -70 -94 -94 l-61 -25 -17 21 c-22 25 -23 75 -2 128 21 52 44 52 66 -2 l18 -41 47 44 c27 25 69 53 96 63 31 12 47 23 47 35 0 38 21 40 49 5z m-342 -94 c-18 -42 -27 -52 -61 -65 -64 -24 -154 -44 -223 -51 -58 -6 -63 -5 -63 13 0 15 12 22 53 32 57 15 238 83 277 106 38 22 40 19 17 -35z m-383 -76 c20 -8 21 -48 2 -63 -12 -10 -19 -8 -37 10 -15 15 -18 24 -11 27 7 2 12 10 12 18 0 15 9 17 34 8z m745 -187 c27 -46 31 -60 21 -72 -21 -25 -114 -65 -166 -71 -57 -7 -162 18 -170 40 -3 8 0 32 5 54 10 37 14 40 54 46 56 9 155 56 187 89 l25 26 6 -27 c3 -15 20 -53 38 -85z m-455 67 c21 -8 21 -60 1 -68 -9 -3 -24 3 -35 14 -24 24 -25 30 -5 30 8 0 14 3 14 8 -4 22 1 25 25 16z m76 -764 c0 -24 7 -35 35 -51 19 -12 35 -27 35 -34 0 -7 -20 -31 -45 -54 -42 -38 -58 -71 -35 -71 5 0 33 9 62 19 29 11 64 21 78 23 21 2 25 9 28 41 4 41 10 43 85 31 47 -8 48 -26 7 -113 -47 -98 -30 -116 45 -51 25 22 50 40 56 40 5 0 9 26 9 58 0 67 4 74 48 91 51 21 82 50 82 77 0 28 4 28 136 -1 130 -29 244 -89 259 -135 38 -120 -261 -221 -656 -221 -360 0 -649 87 -649 196 0 66 120 132 306 169 108 22 114 21 114 -14z m140 -91 c0 -7 -51 -39 -64 -39 -2 0 1 13 6 28 9 23 16 28 35 24 12 -2 23 -8 23 -13z m200 -32 c0 -24 -8 -41 -32 -63 -24 -22 -30 -25 -24 -9 4 10 10 38 13 62 4 33 10 43 24 43 15 0 19 -7 19 -33z" fill="#1a202c"/>
<path d="M3140 3436 c0 -9 5 -16 10 -16 6 0 10 4 10 9 0 6 -4 13 -10 16 -5 3 -10 -1 -10 -9z" fill="#1a202c"/>
<path d="M3092 3406 c-9 -20 -8 -25 4 -30 23 -9 32 1 26 29 -6 31 -16 32 -30 1z" fill="#1a202c"/>
<path d="M3123 3358 c-20 -10 -32 -28 -19 -28 16 0 56 21 56 30 0 12 -8 12 -37 -2z" fill="#1a202c"/>
<path d="M1987 3313 c-15 -15 -5 -23 21 -17 41 10 51 24 16 24 -17 0 -34 -3 -37 -7z" fill="#1a202c"/>
<path d="M1825 3243 c-51 -33 -49 -32 -43 -39 6 -5 118 54 118 62 0 13 -41 0 -75 -23z" fill="#1a202c"/>
<path d="M1666 3110 c-20 -22 -36 -45 -36 -52 0 -13 67 48 81 75 17 31 -7 18 -45 -23z" fill="#1a202c"/>
<path d="M1551 2925 c-24 -63 -24 -65 -13 -65 8 0 52 96 52 113 0 4 -4 7 -9 7 -5 0 -19 -25 -30 -55z" fill="#1a202c"/>
<path d="M1506 2754 c-9 -23 -7 -54 3 -54 9 0 21 33 21 58 0 17 -17 15 -24 -4z" fill="#1a202c"/>
<path d="M1008 2624 c-43 -13 -50 -20 -73 -68 -43 -92 -36 -116 58 -190 56 -45 58 -61 17 -142 -16 -32 -30 -66 -30 -75 0 -9 -9 -28 -20 -42 -11 -13 -36 -58 -55 -98 -43 -89 -46 -139 -11 -167 23 -17 24 -24 20 -93 -2 -41 4 -125 13 -188 13 -92 13 -124 4 -165 -15 -66 -96 -233 -119 -244 -9 -5 -55 -12 -101 -16 -229 -18 -463 -90 -560 -172 -54 -45 -59 -65 -53 -198 l5 -120 38 -41 c73 -79 254 -144 506 -182 164 -24 550 -24 716 0 283 42 485 124 531 216 7 14 16 76 19 137 5 97 3 115 -13 141 -64 105 -305 191 -629 223 -58 5 -106 12 -108 14 -2 1 1 34 7 73 7 50 19 86 44 127 41 68 91 203 112 299 8 37 19 78 25 90 8 14 10 71 7 182 l-6 161 82 28 c109 39 181 110 248 247 26 52 50 107 53 122 4 15 21 35 42 47 19 11 32 24 28 29 -3 5 0 13 5 16 21 13 -22 47 -52 41 -15 -3 -28 -1 -30 6 -8 23 -39 -2 -57 -45 -11 -24 -54 -82 -96 -128 -43 -46 -91 -99 -107 -116 -30 -33 -68 -48 -161 -63 -76 -12 -135 30 -100 71 7 8 18 40 23 70 10 49 9 55 -10 68 -21 14 -27 41 -9 41 6 0 9 6 6 13 -2 6 0 20 5 30 7 13 2 24 -21 47 -26 27 -36 30 -88 29 -32 0 -79 -7 -105 -15z m728 -34 c16 7 23 6 19 0 -3 -5 -1 -18 4 -29 19 -35 -11 -32 -67 5 -2 1 0 13 4 26 6 18 9 19 12 6 3 -14 8 -15 28 -8z m-556 -88 c42 -57 44 -98 3 -87 -18 4 -24 2 -21 -7 3 -7 15 -15 29 -18 l24 -6 -26 -26 c-14 -14 -29 -33 -32 -42 -8 -19 -77 -22 -95 -4 -18 18 -14 30 7 19 16 -9 21 -6 32 21 12 29 11 33 -9 46 -12 8 -22 23 -22 33 0 21 11 24 26 9 7 -7 10 1 10 23 0 47 13 87 27 86 6 0 28 -21 47 -47z m535 24 c17 -13 15 -19 -44 -140 -99 -201 -165 -251 -411 -307 -50 -12 -88 -24 -85 -29 4 -7 101 10 141 24 7 3 14 -11 18 -32 8 -53 7 -285 -2 -299 -18 -28 -107 -57 -177 -57 -57 -1 -80 4 -128 27 -69 34 -92 64 -84 110 3 17 18 100 32 182 18 109 33 167 55 211 l30 61 56 6 c31 3 68 1 82 -5 l27 -11 -25 -7 c-14 -5 -37 -8 -52 -9 -16 -1 -28 -4 -28 -9 0 -20 277 19 326 46 21 12 224 232 224 243 0 13 23 11 45 -5z m-770 -572 c-9 -54 -18 -100 -20 -102 -12 -12 -35 24 -35 53 0 30 57 161 67 152 2 -3 -3 -49 -12 -103z m109 -274 c52 -17 152 -15 205 4 24 9 46 14 49 11 11 -10 -30 -152 -67 -237 -47 -105 -115 -209 -189 -290 -74 -80 -224 -204 -302 -250 l-63 -37 -19 24 -19 25 73 72 c87 86 165 208 207 323 47 129 76 295 52 295 -5 0 -11 -23 -15 -51 -4 -28 -9 -50 -11 -48 -9 10 -26 174 -20 200 l7 29 36 -29 c20 -16 54 -34 76 -41z m77 -562 c-28 -135 -67 -263 -87 -283 -9 -9 -24 -15 -33 -13 -18 4 -19 14 -4 170 l10 106 61 68 c34 38 63 73 63 79 1 5 3 2 6 -7 2 -10 -5 -64 -16 -120z m264 -14 c134 -19 274 -57 361 -99 81 -39 144 -101 144 -141 0 -116 -221 -217 -580 -265 -123 -17 -507 -17 -630 0 -374 50 -598 157 -576 275 14 71 131 144 309 191 150 40 367 68 367 47 0 -14 -97 -117 -134 -143 -20 -13 -36 -29 -36 -35 0 -6 -9 -18 -21 -25 -25 -17 -19 -55 16 -93 18 -20 28 -23 55 -17 39 8 50 26 20 34 -11 3 -20 13 -20 22 0 9 5 13 10 10 16 -10 105 46 210 130 111 89 109 90 89 -69 -7 -56 -13 -117 -13 -136 l-1 -35 65 -6 c36 -4 68 -5 73 -2 19 11 4 31 -28 37 l-35 7 19 27 c22 30 62 154 82 250 l13 63 71 -6 c38 -4 115 -13 170 -21z m-744 -204 c4 -46 1 -80 -7 -81 -5 -1 -18 13 -28 31 -19 32 -19 33 -1 46 22 17 35 18 36 4z m369 -110 c9 -18 8 -20 -15 -20 -27 0 -28 1 -19 24 8 22 21 20 34 -4z" fill="#1a202c"/>
<path d="M1125 2509 c-12 -19 5 -23 22 -6 16 16 16 17 1 17 -9 0 -20 -5 -23 -11z" fill="#1a202c"/>
<path d="M1150 2475 c0 -8 5 -15 10 -15 6 0 10 7 10 15 0 8 -4 15 -10 15 -5 0 -10 -7 -10 -15z" fill="#1a202c"/>
</g>
</svg>