<svg xmlns="http://www.w3.org/2000/svg" version="1.0" width="512.000000pt" height="512.000000pt" viewBox="0 0 512.000000 512.000000" preserveAspectRatio="xMidYMid meet">

<g transform="translate(0.000000,512.000000) scale(0.100000,-0.100000)" fill="#1a202c" stroke="none">
<path d="M865 5111 c-37 -16 -49 -41 -120 -249 l-70 -205 -214 -72 c-235 -79 -251 -89 -251 -157 0 -65 31 -87 213 -147 86 -29 157 -55 157 -57 0 -2 -25 -38 -56 -80 -250 -338 -416 -780 -475 -1264 -20 -161 -17 -519 5 -665 23 -151 83 -391 131 -521 58 -156 176 -389 267 -525 110 -164 180 -251 313 -388 341 -351 751 -591 1203 -705 228 -57 338 -70 592 -70 226 0 284 5 490 46 536 105 1088 434 1448 862 336 401 527 824 603 1341 18 115 18 501 1 610 -41 257 -98 465 -183 663 -437 1020 -1484 1671 -2549 1583 -434 -36 -827 -156 -1163 -355 -43 -25 -81 -46 -85 -46 -4 0 -34 79 -66 175 -32 97 -67 187 -79 201 -24 27 -79 39 -112 25z m2050 -220 c519 -87 957 -318 1330 -703 358 -367 567 -786 651 -1303 14 -82 18 -165 18 -325 0 -160 -4 -243 -18 -325 -84 -517 -293 -936 -651 -1303 -440 -453 -989 -703 -1600 -728 -517 -22 -1021 140 -1465 470 -115 85 -364 331 -447 441 -255 340 -406 684 -475 1090 -18 107 -22 170 -22 350 0 224 9 327 45 515 67 344 204 673 385 928 l52 72 48 -142 c54 -163 78 -198 139 -198 65 0 84 30 161 263 l69 207 212 71 c235 78 253 89 253 161 0 57 -28 79 -158 122 -62 21 -112 40 -112 42 0 11 272 135 378 173 191 69 435 121 677 145 99 10 415 -4 530 -23z m-1980 -270 c36 -110 50 -124 148 -157 45 -14 86 -29 91 -32 6 -3 -28 -18 -74 -34 -120 -40 -123 -43 -160 -153 -17 -52 -33 -95 -36 -95 -2 0 -16 39 -31 87 -15 48 -37 97 -48 109 -12 12 -61 34 -108 50 -48 15 -84 31 -79 35 4 3 44 19 89 34 98 32 112 46 148 156 15 43 28 79 30 79 2 0 15 -36 30 -79z" fill="#1a202c"/>
<path d="M2524 4580 c-31 -12 -64 -59 -64 -91 0 -38 44 -87 83 -93 18 -3 91 -10 162 -16 666 -58 1259 -485 1534 -1105 22 -50 58 -153 81 -230 23 -77 50 -148 60 -158 9 -10 35 -21 57 -24 32 -4 44 0 70 21 43 36 47 63 23 159 -187 744 -816 1346 -1570 1503 -177 36 -389 53 -436 34z" fill="#1a202c"/>
<path d="M2524 4050 c-32 -13 -64 -59 -64 -91 0 -17 11 -41 28 -60 27 -30 33 -32 133 -40 196 -17 361 -60 504 -131 430 -215 700 -620 731 -1099 6 -91 10 -105 33 -131 38 -42 88 -47 129 -13 42 35 47 72 33 214 -59 581 -423 1057 -970 1265 -180 69 -484 116 -557 86z" fill="#1a202c"/>
<path d="M2397 3445 c-276 -53 -519 -237 -642 -490 -70 -142 -88 -224 -88 -395 0 -118 4 -160 22 -225 68 -251 246 -468 476 -580 142 -70 223 -88 395 -88 172 0 253 18 395 88 230 112 408 329 476 580 18 65 22 107 22 225 0 171 -18 253 -88 395 -112 230 -333 411 -580 475 -106 28 -283 35 -388 15z m301 -201 c44 -8 118 -35 172 -61 81 -39 108 -58 182 -133 72 -72 94 -103 131 -181 102 -209 102 -409 0 -618 -37 -78 -59 -109 -131 -181 -74 -75 -101 -94 -182 -133 -211 -102 -409 -102 -620 0 -81 39 -108 58 -182 133 -72 72 -94 103 -131 181 -50 102 -77 212 -77 309 0 97 27 207 77 309 37 78 59 109 131 181 74 74 101 94 182 133 153 74 292 93 448 61z" fill="#1a202c"/>
<path d="M2465 2843 c-211 -76 -272 -336 -115 -493 61 -61 119 -85 210 -85 91 0 149 24 210 85 61 61 85 119 85 210 0 91 -24 149 -85 210 -80 80 -203 109 -305 73z m165 -218 c35 -36 34 -95 -3 -132 -60 -61 -162 -19 -162 66 0 89 101 130 165 66z" fill="#1a202c"/>
<path d="M565 2651 c-62 -26 -74 -85 -56 -268 23 -230 82 -441 180 -648 331 -696 1018 -1161 1777 -1201 l120 -7 35 31 c28 25 34 37 34 72 0 34 -6 47 -31 70 -29 25 -40 27 -145 34 -482 29 -898 215 -1234 551 -332 332 -513 731 -541 1195 -7 112 -8 116 -39 147 -33 33 -61 40 -100 24z" fill="#1a202c"/>
<path d="M1125 2651 c-62 -26 -81 -110 -34 -156 14 -14 42 -28 62 -32 32 -5 41 -1 72 30 47 47 48 86 1 133 -34 34 -61 41 -101 25z" fill="#1a202c"/>
<path d="M4454 2650 c-32 -13 -64 -59 -64 -91 0 -40 46 -88 91 -95 31 -5 42 -1 70 24 28 25 34 37 34 72 0 35 -6 47 -33 71 -33 29 -60 35 -98 19z" fill="#1a202c"/>
<path d="M1149 2231 c-39 -39 -38 -73 5 -188 80 -214 199 -395 365 -556 152 -146 293 -240 480 -317 149 -61 381 -109 528 -110 55 0 67 4 95 29 27 24 33 36 33 71 0 35 -6 47 -33 71 -28 25 -41 29 -90 29 -219 0 -494 90 -701 228 -105 70 -269 231 -338 332 -51 75 -133 231 -148 280 -27 90 -48 131 -75 145 -46 24 -88 19 -121 -14z" fill="#1a202c"/>
<path d="M3750 2073 c-48 -14 -64 -33 -127 -159 l-67 -132 -119 -58 c-142 -70 -167 -92 -167 -145 0 -57 33 -87 167 -153 l120 -59 59 -120 c65 -131 97 -167 149 -167 52 0 84 36 149 167 l59 120 119 59 c65 32 130 71 144 85 30 31 35 86 11 122 -8 12 -73 51 -144 86 l-130 64 -64 129 c-35 71 -69 134 -76 139 -16 14 -65 27 -83 22z m132 -468 l56 -31 -56 -29 c-46 -24 -62 -40 -84 -80 -15 -27 -30 -50 -33 -50 -3 0 -18 23 -33 50 -22 40 -38 56 -84 80 l-56 29 56 31 c45 25 62 42 86 87 l31 56 30 -56 c25 -44 43 -62 87 -87z" fill="#1a202c"/>
<path d="M4784 790 c-43 -17 -64 -58 -64 -125 l0 -63 -71 -4 c-65 -3 -74 -6 -100 -36 -18 -20 -29 -43 -29 -62 0 -19 11 -42 29 -62 26 -30 35 -33 100 -36 l71 -4 0 -64 c0 -55 4 -68 28 -94 17 -19 40 -33 63 -36 31 -5 42 -1 70 24 31 27 34 35 37 101 l4 71 64 0 c56 0 68 3 96 29 27 24 33 36 33 71 0 35 -6 47 -33 71 -28 26 -40 29 -96 29 l-64 0 -4 71 c-3 65 -6 74 -36 100 -33 29 -60 35 -98 19z" fill="#1a202c"/>
<path d="M264 590 c-43 -17 -64 -58 -64 -125 l0 -63 -71 -4 c-65 -3 -74 -6 -100 -36 -38 -42 -38 -82 0 -124 26 -30 35 -33 100 -36 l71 -4 0 -64 c0 -55 4 -68 28 -94 17 -20 40 -33 64 -37 33 -5 41 -2 73 30 33 33 35 39 35 101 l0 66 66 0 c62 0 68 2 100 34 25 25 34 43 34 66 0 23 -10 42 -34 66 -32 32 -38 34 -100 34 l-66 0 0 66 c0 62 -2 68 -34 100 -34 34 -61 41 -102 24z" fill="#1a202c"/>
</g>
</svg>