<svg xmlns="http://www.w3.org/2000/svg" version="1.0" width="400.000000pt" height="400.000000pt" viewBox="0 0 400.000000 400.000000" preserveAspectRatio="xMidYMid meet">

<g transform="translate(0.000000,400.000000) scale(0.100000,-0.100000)" fill="#1a202c" stroke="none">
<path d="M1790 3881 c-5 -11 -7 -27 -4 -35 5 -13 -2 -16 -40 -16 -47 0 -106 -22 -106 -40 0 -5 10 -14 21 -21 21 -11 21 -11 -9 -30 -30 -20 -59 -70 -48 -87 3 -5 -12 -23 -34 -41 -39 -31 -51 -63 -29 -76 7 -5 5 -13 -6 -25 -9 -10 -18 -33 -22 -53 -4 -30 -2 -37 20 -52 15 -9 31 -14 37 -10 6 4 10 -10 10 -39 0 -45 5 -51 38 -47 7 1 15 -5 18 -14 7 -18 35 -20 52 -3 9 9 13 7 18 -5 3 -9 12 -17 18 -17 7 0 18 -11 24 -24 12 -27 10 -28 -93 -41 -28 -4 -57 -11 -65 -17 -12 -8 -11 -9 4 -4 10 4 51 9 91 13 l73 6 11 -34 c22 -68 61 -245 61 -276 0 -30 -3 -32 -50 -42 -72 -15 -82 -14 -113 14 -31 29 -31 29 -17 56 14 26 2 89 -17 89 -10 0 -12 6 -8 20 5 15 0 22 -18 29 -19 8 -27 21 -35 58 -6 26 -8 52 -5 58 3 5 0 5 -6 -1 -10 -9 -10 -24 2 -70 13 -51 13 -62 1 -86 -8 -15 -21 -55 -29 -90 -8 -34 -19 -64 -25 -66 -22 -8 -39 -34 -69 -106 -83 -200 -78 -315 19 -381 83 -57 158 -38 269 70 37 36 71 65 75 65 4 0 4 -21 1 -47 -3 -27 -7 -66 -9 -88 -3 -22 -14 -74 -25 -115 -49 -180 -56 -249 -56 -565 0 -311 4 -359 51 -635 46 -274 166 -701 199 -714 8 -3 15 -10 15 -16 0 -6 14 -45 31 -86 51 -122 118 -174 165 -127 15 15 16 31 9 133 -9 149 -7 338 11 990 7 294 14 553 14 575 0 39 1 38 61 -69 55 -100 99 -194 99 -214 0 -9 -41 -24 -107 -42 l-43 -11 0 -181 0 -181 88 7 c208 16 343 48 418 99 160 107 183 278 84 630 -37 132 -116 345 -186 502 -29 66 -56 141 -60 167 l-6 47 48 -15 c95 -29 184 -13 239 42 101 100 158 326 155 604 -1 69 4 153 10 188 14 72 9 97 -20 89 -11 -3 -23 -1 -26 4 -3 5 -17 9 -32 8 -15 -1 -34 1 -42 5 -8 3 -21 2 -28 -2 -16 -11 -22 -86 -11 -134 9 -36 8 -38 -107 -181 l-117 -145 -26 16 c-14 9 -55 39 -91 67 -35 27 -61 45 -57 38 4 -7 42 -38 85 -70 l77 -58 -21 -40 c-12 -22 -25 -51 -28 -65 -4 -14 7 1 25 33 18 31 73 108 123 171 150 186 138 176 193 178 l48 1 -41 4 c-45 4 -54 17 -54 81 0 30 2 32 35 32 40 0 48 -21 12 -36 l-22 -9 22 -22 23 -23 -5 23 c-8 30 23 50 49 31 15 -10 17 -21 12 -48 -4 -20 -12 -36 -19 -36 -9 0 -9 -2 0 -8 20 -13 25 -94 14 -233 -18 -220 -61 -356 -141 -443 -64 -69 -122 -80 -232 -46 l-65 20 -11 107 c-15 143 -33 192 -94 256 -39 41 -42 42 -13 8 56 -65 70 -109 100 -301 31 -204 38 -186 -90 -226 -103 -32 -356 -76 -355 -61 0 1 7 20 15 42 9 26 14 75 13 140 l-1 100 -7 -110 c-11 -166 -23 -185 -112 -185 l-58 0 -31 48 c-36 57 -55 120 -68 227 -5 44 -15 91 -21 105 l-10 25 4 -25 c2 -14 7 -56 11 -95 4 -38 9 -78 11 -87 3 -10 0 -18 -7 -18 -6 0 -51 -38 -99 -84 -106 -102 -145 -118 -213 -88 -112 51 -133 161 -66 347 45 123 52 129 147 133 l80 4 12 -38 c7 -21 16 -83 21 -138 l7 -101 -2 110 c-2 61 -5 117 -7 125 -3 11 9 16 51 21 100 11 103 13 96 73 -5 45 -43 209 -62 269 -4 13 -2 17 5 13 6 -4 11 -18 11 -30 0 -13 11 -39 24 -59 13 -19 38 -64 55 -100 30 -62 95 -133 146 -159 11 -6 -5 12 -36 40 -32 29 -69 76 -88 111 l-32 61 27 -10 c34 -13 75 -5 103 21 l21 20 21 -48 c12 -26 25 -57 29 -68 6 -13 9 -15 9 -5 0 8 -8 35 -20 59 -14 32 -16 46 -8 52 8 5 8 8 0 10 -9 3 -9 12 -2 32 6 16 11 54 11 85 0 56 0 56 19 37 23 -24 38 -155 18 -155 -7 0 -4 -5 6 -11 23 -14 22 -70 -3 -150 -10 -35 -18 -65 -16 -67 2 -2 13 25 24 60 19 58 36 221 21 196 -4 -6 -8 8 -11 30 -2 22 0 38 4 36 5 -3 9 -15 9 -27 1 -18 2 -19 6 -4 3 10 -2 29 -11 42 -9 13 -16 38 -16 55 0 27 3 30 33 31 30 2 30 2 5 6 -29 4 -32 12 -22 50 5 19 9 20 32 12 22 -8 30 -7 42 8 8 10 22 18 30 18 8 0 17 11 18 25 2 14 10 29 18 33 16 9 19 53 5 62 -5 3 -7 21 -4 40 4 22 1 41 -8 51 -8 9 -12 27 -11 39 2 14 -6 32 -19 44 -22 20 -22 22 -4 34 17 13 17 15 -3 35 -16 16 -34 22 -67 22 -43 0 -45 1 -35 21 17 30 -5 52 -47 47 -27 -3 -33 0 -33 14 0 12 -7 18 -21 18 -15 0 -19 5 -17 22 5 35 -23 33 -80 -6 -29 -19 -52 -31 -52 -27 0 11 -50 61 -61 61 -5 0 -13 -9 -19 -19z m217 -137 c40 -32 83 -89 83 -108 0 -6 -6 -2 -12 9 -18 33 -71 86 -103 102 -40 21 -122 20 -165 -2 -66 -33 -129 -111 -131 -162 0 -10 -3 -13 -6 -6 -17 42 62 152 132 185 63 29 153 21 202 -18z m-24 -171 c23 -15 45 -27 48 -26 4 1 9 -26 13 -60 7 -68 -4 -119 -30 -148 -16 -18 -16 -20 4 -42 19 -20 22 -35 22 -98 0 -93 -12 -115 -55 -99 -16 6 -52 27 -80 46 -50 35 -50 35 -15 3 19 -17 52 -39 73 -49 35 -16 37 -19 22 -34 -17 -16 -69 -21 -100 -10 -9 4 -32 37 -51 75 -39 78 -43 98 -16 78 14 -10 15 -10 5 0 -8 10 -8 21 -1 43 9 25 7 33 -15 56 -52 57 -75 142 -51 191 8 17 22 31 30 31 7 0 19 9 26 20 7 11 21 20 30 20 10 0 30 18 45 41 l27 41 13 -26 c8 -15 33 -38 56 -53z m142 11 c38 -15 60 -118 35 -165 -12 -22 -48 -25 -73 -6 -36 27 -40 146 -5 169 16 9 22 10 43 2z m-431 -86 c11 -42 7 -120 -6 -116 -26 9 -40 138 -14 138 7 0 16 -10 20 -22z m1206 -38 c0 -13 -7 -20 -20 -20 -13 0 -20 7 -20 20 0 13 7 20 20 20 13 0 20 -7 20 -20z m55 10 c3 -6 3 -20 0 -31 -6 -19 -9 -20 -22 -6 -9 9 -13 23 -10 31 7 18 23 21 32 6z m55 -19 c0 -20 -20 -61 -30 -61 -11 0 -14 53 -3 63 10 10 33 8 33 -2z m-900 -151 c0 -5 -4 -11 -9 -14 -4 -3 -6 -18 -4 -33 l5 -28 -18 25 c-11 14 -18 28 -16 33 1 4 -5 7 -13 7 -12 0 -12 3 3 18 12 13 22 16 35 10 9 -5 17 -13 17 -18z m-300 -44 c0 -7 -6 -19 -14 -25 -11 -10 -17 -7 -30 11 -19 26 -20 40 -5 55 13 13 49 -18 49 -41z m-205 -233 c-21 -52 -15 -68 15 -40 8 7 7 1 -3 -15 -19 -31 -16 -34 15 -17 19 10 20 9 13 -7 -5 -11 -9 -31 -9 -46 -1 -22 -6 -28 -22 -28 -12 0 -35 -3 -52 -6 l-31 -6 19 71 c21 74 39 111 53 111 5 0 6 -8 2 -17z m274 -616 c11 -19 21 -36 21 -38 0 -2 -20 -3 -45 -1 l-45 4 5 52 c4 28 9 62 12 76 5 23 6 21 18 -17 7 -23 22 -57 34 -76z m732 -62 c55 -123 52 -130 -28 -100 -43 17 -173 131 -173 151 0 9 129 63 143 60 5 -1 31 -51 58 -111z m-381 12 c0 -7 7 -65 15 -127 10 -76 12 -117 5 -124 -19 -19 -31 11 -45 120 -19 141 -19 144 5 144 11 0 20 -6 20 -13z m-296 -18 c13 -12 -11 -60 -67 -134 -41 -54 -101 -104 -113 -93 -2 3 9 58 26 124 16 65 30 119 30 120 0 5 118 -11 124 -17z m231 -2016 c4 -38 9 -76 11 -85 4 -12 0 -18 -13 -18 -10 0 -37 -9 -60 -19 -35 -16 -44 -17 -53 -6 -15 18 -70 149 -65 154 5 4 142 38 162 40 7 1 14 -24 18 -66z" fill="#1a202c"/>
<path d="M1859 3481 c-14 -46 -7 -71 18 -71 14 0 15 2 4 9 -10 7 -12 21 -8 55 8 56 2 59 -14 7z" fill="#1a202c"/>
<path d="M1790 3500 c-12 -8 -9 -10 13 -10 15 0 27 5 27 10 0 13 -20 13 -40 0z" fill="#1a202c"/>
<path d="M1945 3500 c28 -12 37 -12 30 0 -3 6 -16 10 -28 9 -21 0 -21 -1 -2 -9z" fill="#1a202c"/>
<path d="M1911 3365 c-24 -9 -29 -14 -18 -18 9 -3 26 3 39 13 26 22 25 22 -21 5z" fill="#1a202c"/>
<path d="M2075 310 c-8 -13 5 -13 25 0 13 8 13 10 -2 10 -9 0 -20 -4 -23 -10z" fill="#1a202c"/>
<path d="M2085 260 c-8 -13 5 -13 25 0 13 8 13 10 -2 10 -9 0 -20 -4 -23 -10z" fill="#1a202c"/>
<path d="M805 3849 c-11 -7 -39 -29 -62 -51 -47 -42 -69 -46 -164 -26 -69 14 -101 4 -150 -50 l-34 -36 44 37 c56 46 84 52 162 32 34 -9 73 -14 85 -11 13 4 46 26 74 51 64 57 95 58 188 10 72 -38 70 -38 167 -1 22 8 32 15 22 16 -10 0 -34 -7 -54 -15 -52 -22 -81 -19 -134 16 -54 34 -113 46 -144 28z" fill="#1a202c"/>
<path d="M1160 3806 c0 -2 7 -7 16 -10 8 -3 12 -2 9 4 -6 10 -25 14 -25 6z" fill="#1a202c"/>
<path d="M2612 3733 c-47 -14 -53 -19 -47 -37 4 -12 9 -56 12 -98 5 -75 5 -78 -16 -78 -28 0 -36 22 -20 52 11 21 11 22 -4 9 -32 -26 -15 -81 25 -81 29 0 41 37 34 104 -3 34 -8 71 -12 82 -5 19 1 24 53 42 68 24 51 27 -25 5z" fill="#1a202c"/>
<path d="M815 3728 c-11 -6 -39 -28 -62 -50 -47 -42 -64 -45 -153 -26 -72 14 -97 7 -151 -42 l-44 -41 48 36 c64 46 85 50 163 31 36 -9 76 -14 87 -10 12 4 43 26 69 50 41 38 53 44 90 44 30 0 59 -10 93 -30 53 -31 102 -38 138 -18 12 6 36 15 52 19 l30 7 -30 1 c-16 0 -41 -6 -55 -14 -39 -22 -66 -18 -134 20 -65 36 -106 43 -141 23z" fill="#1a202c"/>
<path d="M835 3608 c-11 -6 -33 -23 -50 -39 -56 -52 -77 -58 -153 -42 -84 18 -124 8 -172 -44 l-35 -37 43 36 c54 45 81 50 159 31 78 -19 100 -14 163 42 65 58 97 59 187 9 58 -33 68 -36 96 -26 74 25 111 41 94 42 -10 0 -34 -7 -54 -15 -52 -22 -75 -19 -149 20 -69 37 -96 42 -129 23z" fill="#1a202c"/>
<path d="M1160 3406 c-25 -12 -47 -30 -48 -40 -2 -10 6 -39 17 -66 23 -54 19 -83 -12 -78 -29 4 -33 26 -5 37 15 6 17 10 7 10 -22 1 -41 -23 -33 -43 3 -9 14 -16 24 -16 55 0 63 29 30 105 -11 26 -20 48 -20 51 0 7 79 44 93 44 17 0 32 -17 41 -45 4 -15 0 -23 -17 -30 -12 -6 -22 -19 -22 -30 0 -16 7 -20 30 -20 25 0 31 4 33 27 5 39 -32 118 -55 118 -10 0 -38 -11 -63 -24z m110 -91 c0 -9 -7 -18 -16 -22 -18 -7 -39 11 -30 26 11 17 46 13 46 -4z" fill="#1a202c"/>
<path d="M2188 3263 c6 -2 18 -2 25 0 6 3 1 5 -13 5 -14 0 -19 -2 -12 -5z" fill="#1a202c"/>
<path d="M2290 3235 c35 -13 66 -22 68 -20 5 4 -105 45 -121 44 -7 0 17 -11 53 -24z" fill="#1a202c"/>
<path d="M1671 3151 c-8 -5 0 -8 25 -7 l39 1 22 -75 c12 -41 22 -64 22 -51 1 14 -6 51 -15 83 -16 55 -18 58 -48 58 -17 0 -37 -4 -45 -9z" fill="#1a202c"/>
<path d="M1585 3130 c-8 -12 20 -24 35 -15 6 3 8 11 5 16 -8 12 -32 12 -40 -1z" fill="#1a202c"/>
<path d="M853 3025 c-98 -30 -177 -96 -215 -180 -18 -39 -22 -68 -22 -135 0 -107 25 -170 94 -234 86 -81 253 -110 389 -67 129 40 181 117 189 280 3 76 1 110 -12 149 -10 29 -21 54 -25 56 -4 3 0 -18 10 -47 31 -89 21 -234 -22 -319 -40 -78 -129 -120 -259 -122 -124 -2 -200 24 -266 89 -60 60 -84 120 -84 215 0 131 58 223 178 282 63 31 73 33 174 33 59 0 100 3 90 7 -29 11 -175 7 -219 -7z" fill="#1a202c"/>
<path d="M1125 3003 c17 -8 39 -23 50 -32 19 -15 19 -15 6 2 -15 18 -63 47 -78 47 -4 -1 6 -8 22 -17z" fill="#1a202c"/>
<path d="M859 2976 c-20 -7 -52 -23 -72 -35 -146 -90 -170 -301 -48 -423 61 -61 130 -82 250 -76 176 9 251 90 251 271 0 38 -5 87 -12 108 -12 43 -67 113 -101 130 -12 6 -4 -5 19 -24 24 -21 51 -58 64 -89 19 -45 22 -65 18 -138 -10 -176 -87 -245 -268 -245 -133 1 -211 43 -256 140 -44 93 -27 225 39 293 56 58 120 85 222 92 l90 7 -80 1 c-44 1 -96 -5 -116 -12z" fill="#1a202c"/>
<path d="M1210 2936 c0 -2 8 -10 18 -17 15 -13 16 -12 3 4 -13 16 -21 21 -21 13z" fill="#1a202c"/>
<path d="M1104 2886 c20 -18 45 -53 56 -77 11 -24 20 -37 20 -29 0 24 -35 93 -56 111 -38 32 -54 28 -20 -5z" fill="#1a202c"/>
<path d="M891 2880 c-77 -33 -113 -88 -113 -171 1 -77 42 -134 111 -158 83 -27 186 1 216 60 10 18 19 57 22 88 5 65 -22 131 -69 165 -32 23 -129 32 -167 16z m33 -31 c-132 -38 -129 -240 3 -265 43 -8 104 9 128 36 23 26 33 135 16 171 -12 23 -12 23 4 4 13 -15 16 -37 13 -92 -3 -63 -7 -76 -30 -100 -35 -35 -127 -44 -177 -18 -36 18 -70 81 -71 128 0 67 65 148 118 146 27 -1 26 -1 -4 -10z m92 -55 c18 -15 18 -15 -3 -5 -35 17 -88 13 -117 -10 -20 -16 -26 -29 -26 -59 0 -51 25 -80 75 -87 55 -7 86 19 95 78 l7 44 2 -43 c2 -60 -31 -92 -94 -92 -64 0 -95 31 -95 95 0 63 31 95 93 95 24 0 52 -7 63 -16z m-38 -72 c5 -17 -27 -27 -41 -13 -9 9 -8 14 3 21 18 11 32 8 38 -8z" fill="#1a202c"/>
<path d="M2050 2826 c0 -2 7 -6 15 -10 8 -3 15 -1 15 4 0 6 -7 10 -15 10 -8 0 -15 -2 -15 -4z" fill="#1a202c"/>
<path d="M1781 2800 c14 -31 19 -36 19 -24 0 6 -7 19 -16 30 -14 18 -14 18 -3 -6z" fill="#1a202c"/>
<path d="M2081 2734 c0 -11 3 -14 6 -6 3 7 2 16 -1 19 -3 4 -6 -2 -5 -13z" fill="#1a202c"/>
<path d="M2092 2685 c0 -16 2 -22 5 -12 2 9 2 23 0 30 -3 6 -5 -1 -5 -18z" fill="#1a202c"/>
<path d="M3065 2493 c-97 -9 -117 -15 -111 -30 11 -29 16 -128 7 -142 -11 -17 -39 -8 -48 15 -4 11 1 22 12 30 10 8 14 14 8 14 -24 0 -36 -29 -24 -56 9 -19 17 -25 38 -22 34 4 45 40 33 111 -4 29 -7 53 -6 54 1 1 34 5 73 9 l71 7 7 -45 c10 -69 4 -102 -21 -106 -29 -4 -41 28 -18 45 10 7 13 13 8 13 -14 0 -34 -22 -34 -37 0 -7 12 -20 26 -30 26 -16 27 -16 45 6 21 26 24 68 9 122 -11 39 -25 46 -75 42z" fill="#1a202c"/>
<path d="M1081 2034 c0 -11 3 -14 6 -6 3 7 2 16 -1 19 -3 4 -6 -2 -5 -13z" fill="#1a202c"/>
<path d="M1125 2044 c109 -23 185 -51 185 -69 0 -16 -149 -155 -165 -155 -7 0 -20 42 -30 96 -11 53 -21 91 -23 84 -8 -24 30 -200 43 -200 17 0 97 64 155 124 37 38 43 50 34 64 -12 19 -143 61 -189 60 -18 0 -22 -2 -10 -4z" fill="#1a202c"/>
<path d="M2994 1916 c-3 -8 -4 -25 -2 -38 l3 -23 240 0 240 0 3 38 3 37 -241 0 c-199 0 -242 -2 -246 -14z m466 -20 c0 -23 -3 -24 -102 -31 -57 -3 -159 -5 -228 -3 l-125 3 -3 28 -3 27 230 0 231 0 0 -24z" fill="#1a202c"/>
<path d="M3522 1913 c-12 -23 -5 -41 21 -55 21 -11 21 -10 5 9 -22 24 -23 39 -2 47 24 9 36 -3 31 -30 -5 -29 9 -32 18 -4 13 42 -53 71 -73 33z" fill="#1a202c"/>
<path d="M3228 1803 l232 -3 0 -24 c0 -16 -7 -26 -22 -30 -13 -3 -114 -6 -225 -6 -201 0 -202 0 -206 23 -4 19 -4 18 -6 -6 l-1 -27 238 2 237 3 3 38 3 37 -243 -2 -243 -3 233 -2z" fill="#1a202c"/>
<path d="M3533 1804 c-20 -9 -15 -52 6 -64 31 -16 35 -12 11 8 -25 21 -20 42 10 42 13 0 20 -9 22 -27 4 -25 5 -26 13 -9 15 35 -24 66 -62 50z" fill="#1a202c"/>
<path d="M3160 1680 c80 -4 180 -8 223 -9 75 -1 77 -2 77 -26 l0 -25 -230 0 -230 0 -1 33 c-2 31 -2 32 -6 3 -3 -16 -1 -32 4 -37 12 -11 412 -22 448 -11 26 7 30 13 30 43 l0 34 -230 1 c-214 1 -220 0 -85 -6z" fill="#1a202c"/>
<path d="M3530 1670 c-24 -24 -17 -48 16 -56 44 -11 70 29 38 60 -20 21 -30 20 -54 -4z m48 -28 c3 -16 -2 -22 -17 -22 -24 0 -35 15 -27 36 9 23 40 13 44 -14z" fill="#1a202c"/>
<path d="M1600 1382 c-52 -7 -97 -17 -100 -21 -3 -5 -42 -10 -87 -13 -86 -5 -123 -22 -123 -58 0 -38 90 -80 171 -80 21 0 39 -5 41 -12 4 -11 217 -51 226 -43 2 2 -1 29 -7 61 -6 32 -11 80 -11 108 0 28 -4 56 -8 61 -5 8 -36 7 -102 -3z m-100 -102 c0 -66 1 -65 -74 -52 l-39 7 -3 53 -2 52 59 0 59 0 0 -60z" fill="#1a202c"/>
<path d="M1412 1280 c0 -14 2 -19 5 -12 2 6 2 18 0 25 -3 6 -5 1 -5 -13z" fill="#1a202c"/>
<path d="M1450 1286 c0 -8 5 -18 10 -21 6 -3 10 3 10 14 0 12 -4 21 -10 21 -5 0 -10 -6 -10 -14z" fill="#1a202c"/>
</g>
</svg>